<?xml version="1.0" encoding="utf-8"?>
<!-- Generator: Adobe Illustrator 16.0.0, SVG Export Plug-In . SVG Version: 6.00 Build 0)  -->
<!DOCTYPE svg PUBLIC "-//W3C//DTD SVG 1.1//EN" "http://www.w3.org/Graphics/SVG/1.1/DTD/svg11.dtd">
<svg version="1.1" id="Layer_1" xmlns="http://www.w3.org/2000/svg" xmlns:xlink="http://www.w3.org/1999/xlink" x="0px" y="0px"
	 width="960px" height="560px" viewBox="0 0 960 560" enable-background="new 0 0 960 560" xml:space="preserve">
<g>
	<path fill="#FFFFFF" d="M585.48,255.012c6.451-8.65,9.986-19.546,9.235-31.158c-1.679-25.952-24.077-45.63-50.027-43.952
		c-14.146,0.915-26.418,7.995-34.392,18.443c-6.482-20.006-25.885-33.861-47.832-32.442c-23.793,1.538-42.3,20.498-43.923,43.642
		c-8.651-6.451-19.545-9.986-31.159-9.235c-25.951,1.678-45.629,24.076-43.951,50.028c1.166,18.034,12.345,33.032,27.764,39.944
		c-3.379,7.043-5.061,15.02-4.521,23.371c1.678,25.953,24.076,45.631,50.027,43.953c11.788-0.764,22.271-5.811,30.057-13.514
		c7.77,17.525,25.851,29.213,46.095,27.904c21.695-1.402,38.996-17.291,43.111-37.625c8.84,7.064,20.238,10.986,32.422,10.199
		c25.951-1.678,45.629-24.076,43.951-50.029C611.196,276.861,600.432,262.1,585.48,255.012z"/>
	<path fill="#FFFFFF" d="M543.057,139.366c1.292-1.519,2.073-3.485,2.073-5.636c0-4.806-3.896-8.7-8.7-8.7
		c-2.62,0-4.968,1.159-6.562,2.989c-0.957-3.766-4.369-6.552-8.434-6.552c-4.406,0-8.045,3.275-8.619,7.523
		c-1.52-1.292-3.486-2.074-5.637-2.074c-4.805,0-8.701,3.896-8.701,8.701c0,3.34,1.883,6.239,4.645,7.697
		c-0.707,1.259-1.113,2.709-1.113,4.256c0,4.806,3.896,8.7,8.701,8.7c2.184,0,4.177-0.805,5.704-2.132
		c1.224,3.323,4.419,5.694,8.167,5.694c4.018,0,7.397-2.723,8.398-6.425c1.547,1.409,3.602,2.269,5.857,2.269
		c4.806,0,8.701-3.896,8.701-8.701C547.537,143.702,545.729,140.851,543.057,139.366z"/>
	<path fill="#FFFFFF" d="M423.846,398.91c2.573-3.021,4.128-6.938,4.128-11.219c0-9.564-7.754-17.318-17.319-17.318
		c-5.214,0-9.887,2.309-13.062,5.953c-1.904-7.496-8.697-13.043-16.786-13.043c-8.77,0-16.013,6.52-17.157,14.977
		c-3.023-2.572-6.938-4.131-11.218-4.131c-9.565,0-17.319,7.756-17.319,17.32c0,6.646,3.747,12.418,9.242,15.32
		c-1.407,2.506-2.214,5.393-2.214,8.473c0,9.564,7.754,17.318,17.319,17.318c4.345,0,8.312-1.604,11.353-4.246
		c2.436,6.617,8.795,11.336,16.257,11.336c7.997,0,14.724-5.42,16.717-12.787c3.077,2.803,7.167,4.514,11.658,4.514
		c9.565,0,17.319-7.756,17.319-17.32C432.765,407.539,429.165,401.865,423.846,398.91z"/>
	<path fill="#FFFFFF" d="M621.245,376.824c1.556-1.83,2.497-4.197,2.497-6.787c0-5.785-4.69-10.477-10.477-10.477
		c-3.153,0-5.98,1.396-7.9,3.602c-1.152-4.535-5.261-7.891-10.154-7.891c-5.305,0-9.687,3.943-10.379,9.061
		c-1.828-1.557-4.196-2.5-6.785-2.5c-5.787,0-10.477,4.691-10.477,10.479c0,4.021,2.266,7.512,5.59,9.268
		c-0.851,1.516-1.338,3.262-1.338,5.125c0,5.785,4.689,10.475,10.476,10.475c2.628,0,5.028-0.969,6.868-2.566
		c1.473,4.002,5.32,6.855,9.834,6.855c4.837,0,8.906-3.277,10.111-7.734c1.861,1.695,4.336,2.73,7.053,2.73
		c5.786,0,10.477-4.691,10.477-10.477C626.641,382.043,624.463,378.611,621.245,376.824z"/>
	<g>
		<path fill="#F6B344" d="M454.772,298.994c-1.447-0.303-2.726-0.652-3.448-1.367c-8.93-8.842-18.949-33.083-18.548-45.64
			c0.799-24.984,21.952-43.31,46.939-42.51c24.986,0.8,43.292,15.326,43.292,45.434c0,12.561-14.08,36.523-23.465,44.876
			c-1.592,1.418-4.031,1.275-5.447-0.316L454.772,298.994z"/>
		<g>
			<path fill="#403833" d="M499.92,305.594c-0.139-0.289-0.298-0.568-0.481-0.834c-0.185-0.266-0.388-0.52-0.623-0.744
				c-0.231-0.229-0.485-0.441-0.769-0.613c-0.066-0.043-0.141-0.074-0.211-0.113c0.08-0.031,0.164-0.057,0.242-0.096
				c0.306-0.141,0.587-0.322,0.847-0.533c0.262-0.205,0.495-0.441,0.712-0.691c0.215-0.252,0.406-0.521,0.578-0.803
				c0.698-1.117,1.07-2.414,1.174-3.73c0.019-0.227-0.123-0.445-0.351-0.514l-0.041-0.012c-2.069-0.625-4.149-0.975-6.233-1.293
				c-2.08-0.322-4.168-0.547-6.254-0.752c-2.089-0.164-4.176-0.33-6.262-0.404c-2.088-0.088-4.175-0.102-6.262-0.102
				c-1.043-0.012-2.086,0.006-3.127,0.031c-1.042,0.027-2.084,0.039-3.126,0.084c-2.083,0.08-4.166,0.176-6.247,0.295
				c-4.158,0.219-8.325,0.484-12.462,0.471h-0.035c-0.313,0-0.568,0.252-0.57,0.564c-0.005,1.326,0.224,2.67,0.831,3.879
				c0.151,0.301,0.324,0.594,0.525,0.873c0.201,0.275,0.423,0.541,0.678,0.777c0.195,0.182,0.411,0.346,0.637,0.496
				c-0.849,0.484-1.519,1.232-1.98,2.033c-0.67,1.172-1.027,2.49-1.098,3.82c-0.008,0.348-0.017,0.625,0.008,0.994
				c0.023,0.346,0.054,0.672,0.119,1.006c0.117,0.662,0.3,1.32,0.587,1.949c0.286,0.629,0.671,1.232,1.184,1.752
				c0.084,0.088,0.18,0.166,0.272,0.248c-0.371,0.244-0.708,0.531-0.997,0.846c-0.691,0.744-1.178,1.619-1.512,2.537
				c-0.169,0.459-0.293,0.93-0.382,1.406c-0.084,0.48-0.148,0.959-0.155,1.451c-0.024,0.379,0.002,1.012,0.064,1.461
				c0.055,0.49,0.164,0.975,0.302,1.459c0.288,0.961,0.769,1.904,1.502,2.73c0.385,0.395,0.811,0.781,1.346,1.059
				c0.524,0.279,1.119,0.494,1.742,0.541c0.173,0.023,0.285,0.029,0.384,0.035l0.322,0.018l0.644,0.041l1.29,0.078l1.034,0.055
				l-0.03,0.574l-0.01,0.172l-0.003,0.236l-0.003,0.344c-0.011,0.201,0.012,0.508,0.036,0.805c0.017,0.299,0.061,0.58,0.114,0.852
				c0.092,0.551,0.256,1.107,0.481,1.643c0.441,1.076,1.166,2.064,2.037,2.803c0.866,0.748,1.837,1.289,2.81,1.689
				c1.957,0.799,3.928,1.113,5.843,1.303c0.961,0.094,1.911,0.145,2.847,0.18l2.721,0.049c1.737,0.068,3.651,0.238,5.572,0.18
				c1.926-0.064,3.918-0.248,5.932-0.918c0.999-0.344,2.02-0.809,2.924-1.523c0.914-0.697,1.691-1.654,2.188-2.707
				c0.513-1.053,0.713-2.182,0.758-3.24c0.021-0.562,0.01-0.996,0.004-1.455v-0.086l1.154-0.029l1.293-0.033l0.646-0.016
				l0.323-0.008l0.162-0.006l0.115-0.002l0.042-0.004l0.078-0.008l0.334-0.035l0.477-0.096c0.301-0.084,0.549-0.176,0.8-0.303
				c0.506-0.236,0.919-0.582,1.294-0.938c0.719-0.738,1.217-1.607,1.529-2.508c0.15-0.453,0.276-0.908,0.348-1.373
				c0.08-0.461,0.123-0.926,0.122-1.389c0.015-0.512-0.019-0.865-0.073-1.375c-0.062-0.461-0.154-0.908-0.29-1.35
				c-0.266-0.877-0.687-1.713-1.274-2.428c-0.406-0.504-0.924-0.936-1.516-1.227c0.047-0.023,0.096-0.039,0.139-0.066
				c0.297-0.156,0.565-0.352,0.809-0.572c0.494-0.43,0.896-0.949,1.209-1.512c0.625-1.125,0.914-2.402,0.949-3.668v-0.006
				c0.019-0.613-0.027-1.271-0.148-1.889C500.387,306.785,500.19,306.174,499.92,305.594z"/>
			<path fill="#403833" d="M499.357,252.945c-2.057-1.229-5.666-1.444-9.064,1.991c-1.372,1.39-2.548,3.626-3.551,6.345
				c-1.611-0.141-3.215-0.421-4.689-0.799c2.345-1.574,2.629-3.421,2.601-4.343c-0.085-2.622-3.339-5.438-7.009-5.554
				c-3.671-0.118-7.098,2.483-7.349,5.096c-0.087,0.918,0.077,2.776,2.316,4.499c-1.496,0.283-3.113,0.46-4.729,0.496
				c-0.828-2.775-1.858-5.083-3.139-6.558c-3.173-3.647-6.785-3.662-8.917-2.567c-2.002,1.028-3.03,3.048-2.561,5.024
				c0.55,2.311,2.029,4.231,4.277,5.562c2.1,1.241,4.732,1.903,7.488,2.133c1.612,7.125,1.973,24.506,2.891,30.565
				c0.247,1.617,1.72,0.545,1.934,0.545c1.017,0.004,1.378-19.807-1.047-31.048c2.425-0.113,4.806-0.504,6.872-1.076
				c0.543-0.149,1.065-0.334,1.576-0.534c0.498,0.232,1.007,0.45,1.539,0.633c2.026,0.703,4.377,1.246,6.789,1.514
				c-2.347,8.275-4.523,24.252-4.374,30.334c0.051,2.049,1.543,0.389,1.8,0.404c1.012,0.066,3.694-21.546,6.351-30.557
				c2.764-0.054,5.432-0.546,7.607-1.65c2.33-1.185,3.93-3.008,4.625-5.277C502.188,256.18,501.289,254.098,499.357,252.945z
				 M459.42,258.959c-1.404-0.829-2.243-1.89-2.566-3.237c-0.068-0.284,0.209-0.657,0.658-0.888c0.945-0.485,2.675-0.33,4.447,1.706
				c0.766,0.882,1.431,2.229,2.011,3.906C462.269,260.192,460.697,259.714,459.42,258.959z M477.39,258.542
				c-2.559-0.924-3.469-2.003-3.421-2.512c0.056-0.574,2.031-1.786,3.556-1.737c1.526,0.05,3.421,1.384,3.438,1.962
				C480.979,256.764,480.002,257.785,477.39,258.542z M495.295,260.107c-1.32,0.672-2.922,1.048-4.635,1.194
				c0.686-1.637,1.437-2.939,2.258-3.77c1.898-1.92,3.635-1.963,4.547-1.419c0.432,0.258,0.684,0.649,0.6,0.929
				C497.655,258.367,496.752,259.371,495.295,260.107z"/>
		</g>
	</g>
</g>
</svg>
