<?xml version="1.0" encoding="utf-8"?>
<!-- Generator: Adobe Illustrator 16.0.0, SVG Export Plug-In . SVG Version: 6.00 Build 0)  -->
<!DOCTYPE svg PUBLIC "-//W3C//DTD SVG 1.1//EN" "http://www.w3.org/Graphics/SVG/1.1/DTD/svg11.dtd">
<svg version="1.1" id="Layer_1" xmlns="http://www.w3.org/2000/svg" xmlns:xlink="http://www.w3.org/1999/xlink" x="0px" y="0px"
	 width="960px" height="560px" viewBox="0 0 960 560" enable-background="new 0 0 960 560" xml:space="preserve">
<g>
	<path fill="#FFFFFF" d="M407.282,216.999c2.433-2.857,3.904-6.56,3.904-10.604c0-9.044-7.332-16.373-16.373-16.373
		c-4.93,0-9.347,2.183-12.351,5.626c-1.798-7.088-8.22-12.329-15.869-12.329c-8.29,0-15.137,6.163-16.218,14.157
		c-2.859-2.433-6.56-3.904-10.606-3.904c-9.041,0-16.373,7.332-16.373,16.373c0,6.285,3.544,11.74,8.738,14.484
		c-1.33,2.368-2.094,5.097-2.094,8.009c0,9.045,7.332,16.373,16.373,16.373c4.108,0,7.86-1.514,10.734-4.014
		c2.303,6.255,8.312,10.717,15.368,10.717c7.56,0,13.919-5.125,15.804-12.087c2.909,2.646,6.776,4.264,11.022,4.264
		c9.041,0,16.373-7.328,16.373-16.373C415.716,225.158,412.31,219.792,407.282,216.999z"/>
	<path fill="#FFFFFF" d="M629.259,287.827c1.83-2.149,2.938-4.936,2.938-7.979c0-6.807-5.518-12.322-12.321-12.322
		c-3.71,0-7.033,1.643-9.294,4.234c-1.354-5.334-6.186-9.278-11.942-9.278c-6.238,0-11.391,4.638-12.205,10.654
		c-2.151-1.831-4.936-2.938-7.981-2.938c-6.804,0-12.321,5.518-12.321,12.321c0,4.729,2.667,8.835,6.576,10.9
		c-1.001,1.782-1.576,3.835-1.576,6.026c0,6.807,5.518,12.322,12.321,12.322c3.092,0,5.916-1.14,8.078-3.021
		c1.733,4.707,6.256,8.064,11.565,8.064c5.689,0,10.475-3.856,11.894-9.096c2.188,1.991,5.099,3.208,8.294,3.208
		c6.805,0,12.322-5.515,12.322-12.321C635.605,293.968,633.042,289.93,629.259,287.827z"/>
	<path fill="#FFFFFF" d="M430.895,447.289c1.83-2.149,2.938-4.936,2.938-7.979c0-6.807-5.518-12.322-12.321-12.322
		c-3.71,0-7.033,1.643-9.294,4.234c-1.354-5.334-6.186-9.278-11.942-9.278c-6.238,0-11.391,4.638-12.205,10.654
		c-2.151-1.831-4.936-2.938-7.981-2.938c-6.804,0-12.321,5.518-12.321,12.321c0,4.729,2.667,8.835,6.576,10.9
		c-1.001,1.782-1.576,3.835-1.576,6.026c0,6.807,5.518,12.322,12.321,12.322c3.092,0,5.916-1.14,8.078-3.021
		c1.733,4.707,6.256,8.064,11.565,8.064c5.689,0,10.475-3.856,11.894-9.096c2.188,1.991,5.099,3.208,8.294,3.208
		c6.805,0,12.322-5.515,12.322-12.321C437.241,453.43,434.678,449.392,430.895,447.289z"/>
	<g>
		<g>
			<path fill="#F6B344" d="M505.161,418.453c0,11.463-10.243,57.616-22.876,57.616c-12.638,0-22.881-46.152-22.881-57.616
				c0-11.466,10.243-20.76,22.881-20.76C494.918,397.693,505.161,406.988,505.161,418.453z"/>
			<path fill="#ED6245" d="M499.07,412.923c-0.001,8.413-7.514,42.278-16.785,42.278c-9.273,0-16.787-33.865-16.787-42.278
				c-0.001-8.41,7.513-15.229,16.787-15.229C491.556,397.693,499.069,404.513,499.07,412.923z"/>
			<path fill="#FFFFFF" d="M493.998,408.109c0,5.872-5.244,29.508-11.713,29.508c-6.473,0-11.718-23.636-11.718-29.508
				c-0.001-5.87,5.245-10.629,11.718-10.629C488.753,397.48,493.998,402.241,493.998,408.109z"/>
		</g>
		<path fill="#52A484" d="M434.456,314.031c-47.664,0-55.249,76.631-44.82,82.12c10.43,5.489,28.537-48.299,57.944-30.312
			C463.45,375.54,448.271,314.031,434.456,314.031z"/>
		<path fill="#52A484" d="M527.4,314.031c47.662,0,55.247,76.631,44.818,82.12c-10.428,5.489-28.538-48.299-57.944-30.312
			C498.41,375.54,513.583,314.031,527.4,314.031z"/>
		<path fill="#ED6245" d="M531.506,283.595c0,62.164-22.854,112.557-51.044,112.557c-28.186,0-51.037-50.393-51.037-112.557
			c0-62.162,41.16-112.554,51.037-112.555C490.345,171.04,531.506,221.433,531.506,283.595z"/>
		<polygon fill="#52A484" points="505.161,415.908 459.062,415.908 464.822,384.628 500.223,384.628 		"/>
		<g>
			<path fill="#403833" d="M502.291,242.443c0,12.719-10.312,23.025-23.024,23.025c-12.72,0-23.03-10.308-23.03-23.024
				c0-12.719,10.311-23.027,23.03-23.028C491.98,219.416,502.291,229.727,502.291,242.443z"/>
			<path fill="#FFFFFF" d="M479.267,268.351c-14.286,0-25.91-11.621-25.909-25.906c0-14.286,11.623-25.909,25.909-25.909
				c14.282,0,25.906,11.622,25.906,25.908C505.173,256.729,493.55,268.351,479.267,268.351z M479.267,222.297
				c-11.11,0-20.147,9.038-20.146,20.147c-0.001,11.107,9.036,20.143,20.146,20.142c11.104,0.001,20.142-9.034,20.145-20.143
				C499.408,231.335,490.372,222.298,479.267,222.297z"/>
		</g>
		<g>
			<path fill="#213228" d="M497.229,300.359c0,9.258-7.508,16.764-16.766,16.763c-9.257,0-16.762-7.505-16.762-16.763
				c0-9.261,7.505-16.765,16.762-16.765C489.722,283.596,497.229,291.099,497.229,300.359z"/>
			<path fill="#403833" d="M480.463,320.001c-10.832,0-19.642-8.812-19.642-19.642c0-10.832,8.812-19.646,19.643-19.646
				c10.833,0,19.644,8.814,19.644,19.646C500.109,311.188,491.297,320.001,480.463,320.001z M480.464,286.476
				c-7.652,0.001-13.882,6.228-13.881,13.884c0,7.656,6.23,13.879,13.88,13.879c7.657,0,13.884-6.223,13.884-13.879
				S488.12,286.476,480.464,286.476z"/>
		</g>
		<g>
			<defs>
				<path id="SVGID_1_" d="M531.506,283.595c0,62.164-22.854,112.557-51.044,112.557c-28.186,0-51.037-50.393-51.037-112.557
					c0-62.162,41.16-112.554,51.037-112.555C490.345,171.04,531.506,221.433,531.506,283.595z"/>
			</defs>
			<clipPath id="SVGID_2_">
				<use xlink:href="#SVGID_1_"  overflow="visible"/>
			</clipPath>
			<path clip-path="url(#SVGID_2_)" fill="#5FBD97" d="M573.49,384.607c0,31.6-40.911,57.215-91.379,57.215
				c-50.465,0-91.379-25.617-91.379-57.214c0-31.599,12.761-57.215,91.379-57.214C560.73,327.395,573.489,353.01,573.49,384.607z"/>
			<path clip-path="url(#SVGID_2_)" fill="#5FBD97" d="M571.842,142.202c-0.001,31.598-40.911,57.215-91.38,57.215
				c-50.462,0-91.374-25.617-91.374-57.215s12.758-57.213,91.374-57.213C559.081,84.989,571.841,110.604,571.842,142.202z"/>
		</g>
		<path fill="#ED6245" d="M470.07,349.578c-0.101-2.812,23.152-4.004,22.777,0c-0.381,4.002-4.994,57.044-11.392,57.044
			C475.064,406.622,470.169,352.391,470.07,349.578z"/>
	</g>
</g>
</svg>
