<?xml version="1.0" encoding="utf-8"?>
<!-- Generator: Adobe Illustrator 16.0.0, SVG Export Plug-In . SVG Version: 6.00 Build 0)  -->
<!DOCTYPE svg PUBLIC "-//W3C//DTD SVG 1.1//EN" "http://www.w3.org/Graphics/SVG/1.1/DTD/svg11.dtd">
<svg version="1.1" id="Layer_1" xmlns="http://www.w3.org/2000/svg" xmlns:xlink="http://www.w3.org/1999/xlink" x="0px" y="0px"
	 width="960px" height="560px" viewBox="0 0 960 560" enable-background="new 0 0 960 560" xml:space="preserve">
<g>
	<polygon fill="#FF0073" points="506.69,303.796 502.519,277.812 464.632,327.319 485.608,331.344 	"/>
	<polygon fill="#00AA1C" points="503.114,254.212 477.131,258.385 526.638,296.271 530.663,275.294 	"/>
	<polygon fill="#FF0073" points="453.531,257.787 457.703,283.771 495.59,234.265 474.613,230.239 	"/>
	<polygon fill="#00A9E3" points="457.108,307.369 483.092,303.197 433.584,265.312 429.561,286.287 	"/>
	<polygon fill="#995D43" points="495.59,234.265 503.114,254.212 477.131,258.385 	"/>
	<polygon fill="#995D43" points="526.638,296.271 506.69,303.796 502.519,277.812 	"/>
	<polygon fill="#995D43" points="433.584,265.312 453.532,257.786 457.704,283.77 	"/>
	<polygon fill="#995D43" points="464.632,327.319 457.107,307.371 483.09,303.199 	"/>
</g>
</svg>
