<?xml version="1.0" encoding="utf-8"?>
<!-- Generator: Adobe Illustrator 16.0.0, SVG Export Plug-In . SVG Version: 6.00 Build 0)  -->
<!DOCTYPE svg PUBLIC "-//W3C//DTD SVG 1.1//EN" "http://www.w3.org/Graphics/SVG/1.1/DTD/svg11.dtd">
<svg version="1.1" id="Layer_1" xmlns="http://www.w3.org/2000/svg" xmlns:xlink="http://www.w3.org/1999/xlink" x="0px" y="0px"
	 width="960px" height="560px" viewBox="0 0 960 560" enable-background="new 0 0 960 560" xml:space="preserve">
<g>
	<g>
		<rect x="345.108" y="166.231" fill="#FFFFFF" width="230.71" height="275.8"/>
		<g>
			<defs>
				<rect id="SVGID_1_" x="345.108" y="166.231" width="230.71" height="275.8"/>
			</defs>
			<clipPath id="SVGID_2_">
				<use xlink:href="#SVGID_1_"  overflow="visible"/>
			</clipPath>
			<g clip-path="url(#SVGID_2_)">
				<g>
					<rect x="366.354" y="166.231" fill="#F1E4C4" width="1.856" height="275.8"/>
					<rect x="404" y="166.231" fill="#F1E4C4" width="1.857" height="275.8"/>
					<rect x="441.646" y="166.231" fill="#F1E4C4" width="1.857" height="275.8"/>
					<rect x="479.293" y="166.231" fill="#F1E4C4" width="1.857" height="275.8"/>
					<rect x="516.939" y="166.231" fill="#F1E4C4" width="1.857" height="275.8"/>
					<rect x="554.586" y="166.231" fill="#F1E4C4" width="1.857" height="275.8"/>
				</g>
				<g>
					<rect x="378.388" y="166.147" fill="#F1E4C4" width="0.696" height="275.801"/>
					<rect x="416.034" y="166.147" fill="#F1E4C4" width="0.696" height="275.801"/>
					<rect x="453.681" y="166.147" fill="#F1E4C4" width="0.696" height="275.801"/>
					<rect x="491.327" y="166.147" fill="#F1E4C4" width="0.696" height="275.801"/>
					<rect x="528.974" y="166.147" fill="#F1E4C4" width="0.696" height="275.801"/>
					<rect x="566.62" y="166.147" fill="#F1E4C4" width="0.696" height="275.801"/>
				</g>
				<g>
					<rect x="391.078" y="166.147" fill="#F1E4C4" width="0.696" height="275.801"/>
					<rect x="428.725" y="166.147" fill="#F1E4C4" width="0.696" height="275.801"/>
					<rect x="466.371" y="166.147" fill="#F1E4C4" width="0.696" height="275.801"/>
					<rect x="504.018" y="166.147" fill="#F1E4C4" width="0.696" height="275.801"/>
					<rect x="541.664" y="166.147" fill="#F1E4C4" width="0.696" height="275.801"/>
					<rect x="355.481" y="167.16" fill="#F1E4C4" width="0.696" height="275.801"/>
				</g>
				<g>
					<rect x="344.18" y="197.75" fill="#F1E4C4" width="231.69" height="1.857"/>
					<rect x="344.18" y="235.396" fill="#F1E4C4" width="231.69" height="1.857"/>
					<rect x="344.18" y="273.042" fill="#F1E4C4" width="231.69" height="1.857"/>
					<rect x="344.18" y="310.689" fill="#F1E4C4" width="231.69" height="1.857"/>
					<rect x="344.18" y="348.335" fill="#F1E4C4" width="231.69" height="1.858"/>
					<rect x="344.18" y="385.981" fill="#F1E4C4" width="231.69" height="1.857"/>
				</g>
				<g>
					<rect x="345.108" y="424.838" fill="#F1E4C4" width="231.691" height="1.857"/>
				</g>
				<g>
					<rect x="339.619" y="174.275" fill="#F1E4C4" width="275.801" height="0.696"/>
					<rect x="341.478" y="211.921" fill="#F1E4C4" width="275.801" height="0.696"/>
					<rect x="341.478" y="249.567" fill="#F1E4C4" width="275.801" height="0.696"/>
					<rect x="341.478" y="287.214" fill="#F1E4C4" width="275.801" height="0.696"/>
					<rect x="338.691" y="324.86" fill="#F1E4C4" width="275.8" height="0.696"/>
					<rect x="341.478" y="362.507" fill="#F1E4C4" width="275.801" height="0.696"/>
					<rect x="339.536" y="374.547" fill="#F1E4C4" width="275.801" height="0.697"/>
					<rect x="345.11" y="400.549" fill="#F1E4C4" width="230.914" height="0.696"/>
					
						<rect x="345.11" y="412.595" transform="matrix(1 0.0029 -0.0029 1 1.2033 -1.3357)" fill="#F1E4C4" width="229.274" height="0.696"/>
				</g>
				<g>
					<rect x="346.12" y="186.965" fill="#F1E4C4" width="275.801" height="0.697"/>
					<rect x="346.12" y="224.612" fill="#F1E4C4" width="275.801" height="0.696"/>
					<rect x="346.12" y="262.258" fill="#F1E4C4" width="275.801" height="0.697"/>
					<rect x="346.12" y="299.904" fill="#F1E4C4" width="275.801" height="0.697"/>
					<rect x="346.12" y="337.551" fill="#F1E4C4" width="275.801" height="0.696"/>
				</g>
			</g>
		</g>
	</g>
	<g>
		<path fill="#414042" d="M393.15,368.006c-0.588,0-1.165-0.141-1.736-0.441c-4.468-2.352-4.65-15.66-2.247-27.167
			c1.87-8.952,9.989-38.311,35.939-40.2l0.144,1.979c-24.565,1.787-32.344,30.018-34.143,38.627
			c-2.701,12.934-1.52,23.56,1.23,25.008c2.346,1.23,6.35-3.696,10.59-8.913c8.032-9.884,19.03-23.421,33.549-16.466l-0.856,1.789
			c-13.108-6.281-23.113,6.033-31.154,15.928C400.069,363.559,396.456,368.005,393.15,368.006z"/>
		<path fill="#414042" d="M536.434,368.006c-3.305,0-6.918-4.445-11.315-9.857c-8.248-10.15-18.517-22.783-32.079-15.457
			l-0.943-1.744c15.007-8.105,26.311,5.798,34.562,15.951c4.241,5.218,8.253,10.145,10.589,8.912
			c2.523-1.328,4.145-11.797,1.055-25.828c-1.887-8.561-9.961-36.592-34.676-37.852l0.102-1.979
			c26.116,1.329,34.548,30.497,36.51,39.404c2.612,11.858,2.554,25.577-2.066,28.009C537.6,367.865,537.021,368.006,536.434,368.006
			z"/>
		<path fill="#414042" d="M464.421,367.679c-23.024,0-41.756-40.774-41.756-90.892c0-28.743,10.997-52.471,17.553-64.056
			c8.514-15.046,19.146-26.833,24.203-26.833c5.061,0,15.693,11.787,24.208,26.833c6.555,11.585,17.553,35.312,17.553,64.056
			C506.182,326.904,487.448,367.679,464.421,367.679z M464.421,187.88c-6.388,0-39.773,37.933-39.773,88.907
			c0,49.025,17.843,88.909,39.773,88.909c21.934,0,39.777-39.884,39.777-88.909C504.198,225.811,470.811,187.88,464.421,187.88z"/>
		<polygon fill="#414042" points="485.308,383.459 446.138,383.459 450.158,361.619 452.108,361.979 448.52,381.477 
			482.988,381.477 479.53,359.568 481.488,359.26 		"/>
		<g>
			<path fill="#414042" d="M463.466,263.301c-10.689,0-19.386-8.695-19.386-19.381c0-10.688,8.696-19.384,19.386-19.385
				c10.687,0,19.381,8.695,19.381,19.384C482.847,254.606,474.152,263.301,463.466,263.301z M463.466,226.518
				c-9.597,0.001-17.403,7.807-17.403,17.402c0,9.594,7.807,17.398,17.403,17.398c9.593,0,17.397-7.805,17.397-17.399
				C480.863,234.324,473.059,226.518,463.466,226.518z"/>
		</g>
		<g>
			<path fill="#414042" d="M464.425,304.557c-7.931,0-14.382-6.451-14.382-14.38c0-7.93,6.451-14.382,14.38-14.382
				c7.93,0.001,14.382,6.453,14.382,14.382S472.354,304.557,464.425,304.557z M464.423,277.778c-6.835,0-12.396,5.562-12.396,12.399
				c0,6.836,5.562,12.397,12.396,12.397h0.002c6.836,0,12.396-5.562,12.396-12.397C476.821,283.342,471.26,277.779,464.423,277.778z
				"/>
		</g>
		<g>
			<defs>
				<path id="SVGID_3_" d="M464.421,367.184c-22.751,0-41.261-40.553-41.261-90.397c0-49.785,33.175-90.394,41.261-90.394
					c8.088,0,41.265,40.607,41.265,90.394C505.686,326.631,487.175,367.184,464.421,367.184z M464.421,187.384
					c-3.417,0-13.28,9.063-22.909,26.079c-6.483,11.458-17.359,34.921-17.359,63.324c0,49.297,18.064,89.405,40.269,89.405
					c22.207,0,40.273-40.107,40.273-89.405c0-28.403-10.877-51.866-17.36-63.324C477.705,196.447,467.841,187.384,464.421,187.384z"
					/>
			</defs>
			<use xlink:href="#SVGID_3_"  overflow="visible" fill="#414042"/>
			<clipPath id="SVGID_4_">
				<use xlink:href="#SVGID_3_"  overflow="visible"/>
			</clipPath>
			<path clip-path="url(#SVGID_4_)" fill="#414042" d="M465.737,404.156c-40.79,0-73.977-20.944-73.977-46.689
				c0-24.248,8.961-46.688,73.97-46.688c65.02,0,73.983,22.439,73.985,46.688C539.716,383.211,506.529,404.156,465.737,404.156z
				 M465.737,312.762c-59.751,0-71.993,17.872-71.993,44.705c0,24.651,32.296,44.707,71.993,44.707
				c39.698,0,71.996-20.056,71.996-44.707C537.731,330.634,525.487,312.762,465.737,312.762z"/>
			<path clip-path="url(#SVGID_4_)" fill="#414042" d="M464.421,210.545c-40.789,0-73.973-20.945-73.973-46.689
				c0-24.25,8.962-46.689,73.973-46.689c65.014,0,73.977,22.439,73.978,46.689C538.397,189.6,505.211,210.545,464.421,210.545z
				 M464.421,119.149c-59.747,0-71.989,17.872-71.989,44.707c0,24.651,32.295,44.707,71.989,44.707
				c39.697,0,71.993-20.055,71.994-44.707C536.414,137.021,524.171,119.149,464.421,119.149z"/>
		</g>
		<path fill="#414042" d="M465.215,376.043c-1.323,0-4.079,0-7.412-22.787c-1.606-10.977-2.63-22.515-2.673-23.732
			c-0.011-0.281,0.061-0.703,0.453-1.109c1.506-1.561,7.783-1.974,10.891-1.974c3.085,0,7.034,0.299,8.331,1.722
			c0.373,0.41,0.545,0.9,0.496,1.419l-0.055,0.587C471.018,376.043,466.65,376.043,465.215,376.043z M457.125,329.699
			c0.128,2.021,1.092,12.572,2.569,22.789c2.905,20.097,5.215,21.475,5.522,21.569c1.421-0.353,4.914-9.995,8.055-44.072
			l0.048-0.512c-0.346-0.366-2.356-1.05-6.846-1.05C461.772,328.424,457.974,329.149,457.125,329.699z"/>
		<g>
			<defs>
				<path id="SVGID_5_" d="M464.421,367.184c-22.751,0-41.261-40.553-41.261-90.397c0-49.785,33.175-90.394,41.261-90.394
					c8.088,0,41.265,40.607,41.265,90.394C505.686,326.631,487.175,367.184,464.421,367.184z M464.421,187.384
					c-3.417,0-13.28,9.063-22.909,26.079c-6.483,11.458-17.359,34.921-17.359,63.324c0,49.297,18.064,89.405,40.269,89.405
					c22.207,0,40.273-40.107,40.273-89.405c0-28.403-10.877-51.866-17.36-63.324C477.705,196.447,467.841,187.384,464.421,187.384z"
					/>
			</defs>
			<use xlink:href="#SVGID_5_"  overflow="visible" fill="#414042"/>
			<clipPath id="SVGID_6_">
				<use xlink:href="#SVGID_5_"  overflow="visible"/>
			</clipPath>
			<path clip-path="url(#SVGID_6_)" fill="#414042" d="M465.737,404.156c-40.79,0-73.977-20.944-73.977-46.689
				c0-24.248,8.961-46.688,73.97-46.688c65.02,0,73.983,22.439,73.985,46.688C539.716,383.211,506.529,404.156,465.737,404.156z
				 M465.737,312.762c-59.751,0-71.993,17.872-71.993,44.705c0,24.651,32.296,44.707,71.993,44.707
				c39.698,0,71.996-20.056,71.996-44.707C537.731,330.634,525.487,312.762,465.737,312.762z"/>
			<path clip-path="url(#SVGID_6_)" fill="#414042" d="M464.421,210.545c-40.789,0-73.973-20.945-73.973-46.689
				c0-24.25,8.962-46.689,73.973-46.689c65.014,0,73.977,22.439,73.978,46.689C538.397,189.6,505.211,210.545,464.421,210.545z
				 M464.421,119.149c-59.747,0-71.989,17.872-71.989,44.707c0,24.651,32.295,44.707,71.989,44.707
				c39.697,0,71.993-20.055,71.994-44.707C536.414,137.021,524.171,119.149,464.421,119.149z"/>
		</g>
	</g>
	<g>
		<rect x="357.924" y="392.242" fill="#5FBD97" width="182.024" height="32.152"/>
		<g>
			<rect x="381.133" y="410.966" fill="#403833" width="3.371" height="13.429"/>
			<rect x="407.581" y="410.966" fill="#403833" width="3.369" height="13.429"/>
			<rect x="434.027" y="410.966" fill="#403833" width="3.371" height="13.429"/>
			<rect x="460.476" y="410.966" fill="#403833" width="3.369" height="13.429"/>
			<rect x="486.922" y="410.966" fill="#403833" width="3.371" height="13.429"/>
			<rect x="513.369" y="410.966" fill="#403833" width="3.371" height="13.429"/>
		</g>
	</g>
	<g>
		<rect x="584.809" y="264.491" fill="#F6B344" width="18.963" height="164.379"/>
		<rect x="584.809" y="428.87" fill="#F1E4C4" width="18.963" height="13.439"/>
		<polygon fill="#213228" points="594.29,243.918 590.086,253.042 598.494,253.042 		"/>
		<polygon fill="#F1E4C4" points="590.086,253.042 584.809,264.491 603.771,264.491 598.494,253.042 		"/>
	</g>
</g>
</svg>
